<?xml version="1.0" encoding="UTF-8"?><svg xmlns="http://www.w3.org/2000/svg" viewBox="0 0 1600 2059.91"><defs><style>.cls-1{fill:#eddc54;}.cls-2{letter-spacing:-.04em;}.cls-3{letter-spacing:-.03em;}.cls-4{fill:#b7957e;}.cls-5{letter-spacing:-.02em;}.cls-6{fill:#f4c7a8;}.cls-7{fill:#eabb98;}.cls-8{fill:#1e293b;}.cls-9{fill:#a77f63;}.cls-10{letter-spacing:-.01em;}.cls-11{fill:#eedc54;}.cls-12{fill:#4d4d4d;}.cls-13{fill:#164e63;}.cls-14{letter-spacing:0em;}.cls-15{letter-spacing:0em;}.cls-16{fill:#129693;}.cls-17{fill:#806042;}.cls-18{fill:#46556b;}.cls-19{fill:#603813;}.cls-20{letter-spacing:0em;}.cls-21{fill:#a06209;}.cls-22{letter-spacing:-.03em;}.cls-23{letter-spacing:-.02em;}.cls-24{letter-spacing:-.03em;}.cls-25{fill:#513f30;}.cls-26{letter-spacing:-.03em;}.cls-27{fill:#42210b;}.cls-28{fill:#a16207;}.cls-29{font-family:CrimsonPro-Medium, 'Crimson Pro';font-size:34px;font-variation-settings:'wght' 500;}.cls-30{letter-spacing:0em;}.cls-31{opacity:.4;}.cls-32{letter-spacing:-.02em;}.cls-33{fill:#6c5440;}.cls-34{fill:#e0b32b;}.cls-35{letter-spacing:0em;}.cls-36{fill:#deeff9;}.cls-37{letter-spacing:-.02em;}.cls-38{font-family:WorkSans-Regular, 'Work Sans';font-size:20px;font-variation-settings:'wght' 400;}.cls-39{letter-spacing:-.04em;}.cls-40{fill:#9ceefb;}.cls-41{fill:#9deefb;}.cls-42{fill:#a00;}.cls-43{letter-spacing:0em;}.cls-44{fill:#63748d;}.cls-45{fill:#0e3749;}.cls-46{fill:#91a3ba;}.cls-47{fill:#a56936;}.cls-48{letter-spacing:0em;}.cls-49{letter-spacing:0em;}.cls-50{fill:#999;}.cls-51{letter-spacing:-.02em;}.cls-52{letter-spacing:-.03em;}.cls-53{fill:#e5b20f;}.cls-54{letter-spacing:-.02em;}.cls-55{fill:#ccc;}.cls-56{letter-spacing:-.02em;}.cls-57{fill:#cda37d;}.cls-58{letter-spacing:0em;}.cls-59{fill:#155e75;}.cls-60{fill:#ddb394;}.cls-61{letter-spacing:.01em;}.cls-62{letter-spacing:-.04em;}.cls-63{fill:#f4f2f2;}.cls-64{letter-spacing:0em;}.cls-65{fill:#c88a08;}.cls-66{letter-spacing:0em;}.cls-67{fill:#d3a885;}.cls-68{fill:#472910;}.cls-69{fill:#f2f2f2;}</style></defs><g id="Layer_1"><g><path class="cls-9" d="M634,584.89c-37.31,0-67.81,27.07-69.88,78.86-.63-.16-1.26-.2-1.9-.12-4.5,.58-7.34,7.22-6.35,14.82,.98,7.52,5.34,13.16,9.79,12.72,6.92,45.03,34.89,78.72,68.35,78.72,38.66,0,69.99-44.98,69.99-100.46s-31.34-84.54-69.99-84.54Z"/><path class="cls-4" d="M614.84,771.62l.07,45.46h40.54l-.08-34.25c-7.27-1.84-14.46-3.52-21.87-5.57-6.43-1.76-12.49-3.62-18.67-5.64Z"/><path class="cls-9" d="M634,769.88c-6.65,0-13.08-1.33-19.17-3.81v5.56c6.18,2.03,12.24,3.88,18.67,5.64,7.41,2.05,14.6,3.73,21.87,5.57v-17.72c-6.74,3.1-13.92,4.77-21.37,4.77Z"/><path class="cls-4" d="M705.78,663.63c-.64-.08-1.28-.04-1.9,.12-2.07-51.78-32.56-78.85-69.87-78.86v92.5h0s-13.62,45.76-13.62,45.76c-.02,.13-.03,.27-.03,.41,0,1.33,.99,2.42,2.28,2.58h14.06s0,.01,0,.01l-2.69,5.69v38.03c33.45,0,61.42-33.69,68.34-78.72,4.45,.45,8.81-5.2,9.79-12.72,.99-7.6-1.86-14.23-6.35-14.82Z"/><polygon class="cls-55" points="648.01 822.94 644.55 820.44 644.54 820.45 635.1 813.63 635.1 813.63 622.22 822.94 618.55 816.91 635.14 889.78 651.7 816.87 648.01 822.94"/><polygon class="cls-16" points="630.28 827.34 625.67 820.45 635.1 813.63 644.54 820.45 639.8 827.34 630.28 827.34"/><path class="cls-11" d="M754.07,905.33c-9.33-44.38-9.9-46.66-16.53-73.3-6.7-26.9-13.91-30.19-14.6-30.54-5.13-2.56-33.68-8.22-40.99-9.87-2.8-.63-8.83-2.6-12.56-3.88l-14.01-5.33c0,12.17-9.56,22.46-20.27,22.46s-20.26-10.29-20.26-22.46l-14.01,5.33c-3.73,1.28-9.76,3.25-12.56,3.88-7.32,1.65-35.86,7.31-40.99,9.87-.69,.35-7.9,3.64-14.6,30.54-6.63,26.64-7.2,28.92-16.53,73.3h98.69s40.54,.01,40.54,.01h0s98.69-.01,98.69-.01Z"/><path class="cls-47" d="M562.57,635.97c-.81-1.44-1.3-3.24-1.3-5.19,0-3.61,1.65-6.69,3.98-7.94-.35-.88-.54-1.84-.54-2.86,0-4.03,3.01-7.29,6.73-7.29,1.15,0,2.23,.31,3.17,.86-.47-.91-.73-1.96-.73-3.08,0-3.01,1.91-5.51,4.45-6.1-.09-.49-.15-.99-.15-1.52,0-3.39,2.07-6.14,4.63-6.14,1.3,0,2.47,.71,3.31,1.84,.36-.09,.73-.14,1.11-.14h0c0-.66,.09-1.29,.25-1.85-.16-.3-.25-.63-.25-.97,0-1.56,1.82-2.82,4.08-2.82,1.25,0,2.37,.39,3.12,1.01,.31-.38,.66-.74,1.02-1.07-.14-.41-.21-.85-.21-1.32,0-2.01,1.38-3.64,3.08-3.64,.2,0,.39,.02,.58,.07,.81-1.72,2.65-2.92,4.8-2.92,.66,0,1.29,.12,1.88,.33,.49-4.22,4.16-7.5,8.63-7.5,2.58,0,4.89,1.1,6.48,2.84,1.56-1.72,4.04-2.84,6.85-2.84,3.5,0,6.5,1.73,7.82,4.2,2.65-2.54,6.98-4.2,11.88-4.2,5.35,0,10.03,1.98,12.57,4.93,1.17-.41,2.52-.64,3.94-.64,4.61,0,8.35,2.41,8.35,5.37,0,.12-.02,.24-.03,.36,0,0,.02,0,.03,0,4.7,0,8.57,1.9,9.16,4.36,.48-.22,.99-.35,1.52-.35,2.29,0,4.18,2.2,4.52,5.08,2.87,.67,5.07,2.96,5.55,5.82,.03,0,.07,0,.1,0,4.67,0,8.45,3.72,8.45,8.31,0,1.01-.19,1.98-.53,2.88,.18,0,.35-.01,.53-.01,5.54,0,10.03,4.49,10.03,10.03,0,2-.59,3.86-1.59,5.42,2.22,1.74,3.65,4.44,3.65,7.47s-1.52,5.92-3.87,7.64c2.6,1.25,4.4,3.9,4.4,6.97,0,3.64-2.52,6.69-5.92,7.51-2.63,3.01-4.2,4.87-4.2,4.87l-.26-4.54c-.23-.16-.38-.43-.4-.74-2.53-1.08-4.36-3.46-4.65-6.31-.9,.23-1.87,.35-2.89,.35-4.38,0-7.97-2.28-8.29-5.17-.08,0-.16,0-.25,0-3.14,0-5.69-1.85-5.79-4.15-.66,.27-1.39,.43-2.16,.43-2.93,0-5.3-2.18-5.3-4.87,0-.07,0-.14,.01-.21-.4,.13-.82,.21-1.27,.21-1.28,0-2.42-.61-3.09-1.53-1.13,.94-2.76,1.53-4.58,1.53-2.15,0-4.04-.82-5.14-2.06-.23,.04-.47,.06-.72,.06-1.17,0-2.21-.44-2.89-1.14-.77,.39-1.66,.61-2.62,.61-1.61,0-3.05-.63-4.01-1.62-1.08,2.25-4.04,3.86-7.52,3.86-1.07,0-2.08-.15-3.01-.43-.17,3.89-2.68,6.98-5.76,6.98s-5.77-3.31-5.77-7.4c-2.87,0-5.41-1.28-6.96-3.25-1.01,.55-2.29,.87-3.67,.87-1.31,0-2.53-.3-3.51-.79-.63,2.33-2.51,4.01-4.73,4.01-.39,0-.78-.06-1.14-.16-.67,1.73-2.41,2.96-4.44,2.96-.09,0-.17,0-.25-.01-.77,1.09-1.98,1.79-3.35,1.79-.56,0-1.08-.12-1.57-.33-.82,1.35-2.76,2.3-5.01,2.3-.1,0-.2,0-.3-.01-.72,2.2-2.68,3.78-4.99,3.78-1.27,0-2.44-.48-3.36-1.28-.29,2.82-2.25,5-4.63,5-2.01,0-3.72-1.56-4.37-3.74-.1,0-.19,.01-.29,.01-1.41,0-2.72-.4-3.84-1.08-.66,2.52-2.22,4.39-4.1,4.74-2.07,5.72-2.87,11.31-2.87,11.31-3.01-4.02-2.86-9.95-2.04-14.68-.51-1.17-.81-2.56-.81-4.05s.29-2.85,.79-4.01c-.5-.63-.79-1.41-.79-2.25,0-1.11,.51-2.1,1.3-2.78Z"/></g><g><path class="cls-9" d="M974.71,1599.64c-32.73,0-59.47,27.07-61.29,78.86-.55-.16-1.11-.2-1.67-.12-3.94,.58-6.44,7.22-5.57,14.82,.86,7.52,4.68,13.16,8.58,12.72,6.07,45.03,30.6,78.72,59.95,78.72,33.91,0,61.39-44.98,61.39-100.46s-27.48-84.54-61.39-84.54Z"/><path class="cls-4" d="M1037.67,1678.38c-.56-.08-1.12-.04-1.67,.12-1.82-51.78-28.56-78.85-61.28-78.86v92.5h0s-11.95,45.76-11.95,45.76c-.02,.13-.03,.27-.03,.41,0,1.33,.87,2.42,2,2.58h12.33s0,.01,0,.01l-2.36,5.69v38.03c29.34,0,53.87-33.69,59.94-78.72,3.9,.45,7.73-5.2,8.58-12.72,.87-7.6-1.63-14.23-5.57-14.82Z"/><path class="cls-28" d="M1077.38,1909.12c.35-21.65-2.06-51.03-14.6-74.15-21.51-39.67-74.43-40.38-87.07-39.95-12.64-.42-65.56,.29-87.07,39.95-12.54,23.12-14.95,52.5-14.6,74.15h203.34Z"/><path class="cls-4" d="M955.51,1787.92l.07,51.56h40.33l-.07-38.84c-7.23-2.09-14.39-3.99-21.76-6.32-6.39-2-12.42-4.1-18.57-6.4Z"/><g><polygon class="cls-9" points="955.51 1791.36 955.51 1787.92 955.51 1791.36 955.51 1791.36"/><path class="cls-9" d="M974.71,1784.64c7.42,0,14.54-2.16,21.12-6.11v22.1c-7.23-2.09-14.39-3.99-21.76-6.32-6.39-2-12.42-4.1-18.57-6.4v-8.29c6.04,3.25,12.49,5.01,19.2,5.01Z"/></g><rect class="cls-63" x="955.58" y="1839.48" width="40.33" height="69.64"/><path d="M1036,1678.5s31.67-89.83-60.7-89.83-61.88,89.83-61.88,89.83c0,0,11.77-8.72,16.78-20.56,0,0-2.5,14.64-7.06,19.84,0,0,29.04-9.37,38.88-31.45,0,0-.59,15.03-6.19,20.04,0,0,37.59-2.28,48.1-24.82,0,0,31.91,17.29,30.09,44.96"/><path class="cls-34" d="M908.1,1704.57c0,1.66,1.34,3,3,3s3-1.34,3-3-1.34-3-3-3-3,1.34-3,3Z"/><path class="cls-34" d="M1035.24,1704.57c0,1.66,1.34,3,3,3s3-1.34,3-3-1.34-3-3-3-3,1.34-3,3Z"/></g><g><path class="cls-41" d="M743.33,406.11c.35-21.65-2.06-51.03-14.6-74.15-21.51-39.67-74.43-40.38-87.07-39.95-12.64-.42-65.56,.29-87.07,39.95-12.54,23.12-14.95,52.5-14.6,74.15h203.34Z"/><path class="cls-4" d="M641.66,95.76c-32.73,0-59.47,27.07-61.29,78.86-.55-.16-1.11-.2-1.67-.12-3.94,.58-6.44,7.22-5.57,14.82,.86,7.52,4.68,13.16,8.58,12.72,6.07,45.03,30.6,78.72,59.95,78.72,33.91,0,61.39-44.98,61.39-100.46s-27.48-84.54-61.39-84.54Z"/><path class="cls-9" d="M704.62,174.5c-.56-.08-1.12-.04-1.67,.12-1.82-51.78-28.56-78.85-61.28-78.86v92.5h0s-11.95,45.76-11.95,45.76c-.02,.13-.03,.27-.03,.41,0,1.33,.87,2.42,2,2.58h12.33s0,.01,0,.01l-2.36,5.69v38.03c29.34,0,53.87-33.69,59.94-78.72,3.9,.45,7.73-5.2,8.58-12.72,.87-7.6-1.63-14.23-5.57-14.82Z"/><path class="cls-9" d="M662.79,274.65c-6.59,3.95-13.7,6.11-21.12,6.11-6.71,0-13.16-1.76-19.2-5.01v9.35l40.33,10.7v-21.15Z"/><path class="cls-4" d="M642.7,323.41c10.7,0,20.09-8.42,20.09-19.74v-3.48s0-4.39,0-4.39l-40.33-10.7v2.37l.02,16.2c0,11.32,9.51,19.73,20.21,19.73Z"/><path class="cls-27" d="M570.49,258.58c10.44-25.79,5.89-13.75-4.42-43.84-10.32-30.09,11.61-41.12,11.61-41.12v-2.09s.86-87.03,64.95-88.75c17.98-.48,31.2,5.56,40.92,14.51h0c8.87,6.67,9.81,11.52,22.65,17.73,12.84,6.21,18.65,47.29,18.65,47.29,6.86,37.24,18.53,46.69,18.53,46.69,18.99,14.16-5.59,50.48-5.59,50.48,16.63,34.88,2.91,69.67-4,83.41-1.46-3.76-3.13-7.42-5.04-10.93-.33-.61-.67-1.21-1.02-1.81-.05-.09-.11-.18-.16-.28-.35-.59-.7-1.17-1.06-1.73h0c-16.57-26.17-47.56-33.6-67.88-35.55l4.37-18.06c19.35-11.73,34.11-38.97,38.63-72.49,.58,.07,1.15,0,1.72-.19,.04-.01,.07-.03,.11-.04,.14-.05,.28-.11,.42-.17,.03-.02,.07-.03,.1-.05,.15-.08,.3-.16,.45-.26,.04-.02,.07-.04,.11-.07,.15-.1,.3-.2,.45-.32,.04-.03,.07-.06,.11-.09,.15-.12,.3-.25,.44-.38,.03-.03,.06-.06,.09-.09,.15-.14,.3-.3,.44-.46,.02-.02,.04-.05,.06-.07,.15-.18,.31-.36,.46-.55,0,0,0,0,0,0,.16-.21,.31-.42,.47-.65,0,0,0,0,0-.01,.15-.22,.3-.46,.44-.7,0-.01,.01-.02,.02-.04,.14-.24,.28-.49,.41-.75,0-.01,.01-.02,.02-.04,.13-.26,.26-.53,.39-.81,0,0,0-.01,0-.02,.39-.86,.73-1.79,1.01-2.78h0c.38-1.3,.66-2.71,.83-4.19,.87-7.6-1.63-14.23-5.57-14.82-.56-.08-1.12-.04-1.67,.12-.14-4.08-.44-8-.89-11.78-.06-.18-.12-.36-.18-.55-3.15-10.32-14.33-16.05-36.37-19.48-22.04-3.44-46.08-17.77-46.08-17.77-5.02,14.83-22.57,31.01-33.26,39.83,0,0,0,0,0,0-4.04,3.41-5.81,9.73-5.81,9.73-.55-.16-1.11-.2-1.67-.12-3.94,.58-6.44,7.22-5.57,14.82,.86,7.52,4.68,13.16,8.58,12.72,4.65,34.49,20.12,62.32,40.3,73.47l.45,1.44v15.88c-16.56,1.86-39.18,7.42-55.62,23.12,0,0,0,0,0,0,7.23-14.42-7.66-16.53-7.66-16.53-8.17-25.36,.86-15.04,11.3-40.83Z"/></g><g><path class="cls-60" d="M299.19,85.67c-37.31,0-67.81,27.07-69.88,78.86-.63-.16-1.26-.2-1.9-.12-4.5,.58-7.34,7.22-6.35,14.82,.98,7.52,5.34,13.16,9.79,12.72,6.92,45.03,34.89,78.72,68.35,78.72,38.66,0,69.99-44.98,69.99-100.46s-31.34-84.54-69.99-84.54Z"/><path class="cls-60" d="M280.02,272.4l.07,45.46h40.54l-.07-34.25c-7.27-1.84-14.46-3.52-21.87-5.57-6.43-1.76-12.49-3.62-18.67-5.64Z"/><path class="cls-57" d="M299.19,270.66c-6.65,0-13.08-1.33-19.17-3.81v5.56c6.18,2.03,12.24,3.88,18.67,5.64,7.41,2.05,14.6,3.73,21.87,5.57v-17.72c-6.74,3.1-13.92,4.77-21.37,4.77Z"/><polygon class="cls-50" points="320.55 283.19 300.29 308.54 280.02 283.19 266.02 288.52 287.4 323.72 300.29 314.41 300.29 314.41 300.29 314.41 313.19 323.72 334.56 288.52 320.55 283.19"/><path class="cls-40" d="M402.72,332.81c-6.7-26.9-13.91-30.19-14.6-30.54-5.13-2.56-33.68-8.22-40.99-9.87-3.4-.77-8.04-2.27-12.56-3.88h0s-21.37,35.2-21.37,35.2l-3.46-2.5h0s-9.44-6.81-9.44-6.81h0s0,0,0,0l-12.89,9.31-21.39-35.2,.06-.02c-4.55,1.62-9.21,3.13-12.63,3.9-7.32,1.65-35.86,7.3-40.99,9.87-.69,.35-7.9,3.64-14.6,30.54-6.63,26.64-7.2,28.92-16.53,73.3h237.92c-9.33-44.38-9.9-46.66-16.53-73.3Z"/><g><polygon class="cls-8" points="307.51 406.11 292.89 406.11 295.53 328.74 305.05 328.74 307.51 406.11"/><polygon class="cls-8" points="295.47 328.12 290.85 321.23 300.29 314.41 309.73 321.23 304.98 328.12 295.47 328.12"/></g><path class="cls-67" d="M370.97,164.4c-.64-.08-1.28-.04-1.9,.12-2.07-51.78-32.56-78.85-69.87-78.86v92.5h0s-13.62,45.76-13.62,45.76c-.02,.13-.03,.27-.03,.41,0,1.33,.99,2.42,2.28,2.58h14.06s0,.01,0,.01l-2.69,5.69v38.03c33.45,0,61.42-33.69,68.34-78.72,4.45,.45,8.81-5.2,9.79-12.72,.99-7.6-1.86-14.23-6.35-14.82Z"/><path d="M230.02,155.16s-14.26-41.85,9.24-62.59c23.5-20.74,43.77-23.5,73.5-20.28,29.73,3.23,55.53,26.73,60.6,51.61,5.07,24.88-4.37,30.71-4.76,33.44-.38,2.73-96.16-11.78-109.07-21-12.9-9.22-29.52,18.81-29.52,18.81Z"/></g><g><path class="cls-6" d="M307.44,1588.04c-32.73,0-59.47,27.07-61.29,78.86-.55-.16-1.11-.2-1.67-.12-3.94,.58-6.44,7.22-5.57,14.82,.86,7.52,4.68,13.16,8.58,12.72,6.07,45.03,30.6,78.72,59.95,78.72,33.91,0,61.39-44.98,61.39-100.46s-27.48-84.54-61.39-84.54Z"/><path class="cls-7" d="M370.39,1666.78c-.56-.08-1.12-.04-1.67,.12-1.82-51.78-28.56-78.85-61.28-78.86v92.5h0s-11.95,45.76-11.95,45.76c-.02,.13-.03,.27-.03,.41,0,1.33,.87,2.42,2,2.58h12.33s0,.01,0,.01l-2.36,5.69v38.03c29.34,0,53.87-33.69,59.94-78.72,3.9,.45,7.73-5.2,8.58-12.72,.87-7.6-1.63-14.23-5.57-14.82Z"/><path class="cls-7" d="M307.44,1773.03c-6.71,0-13.16-1.76-19.2-5.01v11.73c6.15,2.3,12.18,4.4,18.57,6.4,7.37,2.32,14.53,4.23,21.76,6.32v-25.54c-6.59,3.95-13.7,6.11-21.13,6.11Z"/><path class="cls-6" d="M328.82,1792.07v-4.39l-19.56-5.19c-.52,.02-1.04,.03-1.56,.03-6.71,0-13.16-1.76-19.2-5.02v1.85l.02,16.2c-1.28,.15-2.59,.33-3.93,.53l24.15,60.88,13.64-34.4,6.47-16.31h0s4.03-10.15,4.03-10.15c-1.38-.21-2.73-.39-4.05-.54v-3.48Z"/><path class="cls-11" d="M395.76,1834.57c-14.16-26.12-41.94-35.34-62.87-38.48l15.8,16.16-16.94,7.77,4.17,9.44-7.03,7.11h0l-20.16,20.38-20.16-20.38h0l-7.03-7.11,4.17-9.44-16.94-7.77,15.82-16.17c-20.94,3.12-48.78,12.34-62.96,38.49-12.54,23.12-14.95,52.5-14.6,74.15h203.34c.35-21.65-2.06-51.03-14.6-74.15Z"/><path class="cls-42" d="M406.78,1673.05c4.4-2.74,7.26-7.16,7.26-12.14,0-5.92-4.04-11.05-9.9-13.5,.1-.5,.16-1.02,.16-1.55,0-4.12-3.21-7.45-7.17-7.45-.18,0-.36,0-.53,.02,1.95-1.88,3.12-4.28,3.12-6.9,0-4.21-3.02-7.87-7.45-9.68,1.79-2.23,2.86-5.04,2.86-8.09,0-5.99-4.12-11.05-9.75-12.65,0-.18,0-.36,0-.53,0-11.08-7.81-20.07-17.43-20.07-3.37,0-6.51,1.1-9.18,3-1.45-1.32-3.38-2.29-5.57-2.74,.42-1.35,.65-2.78,.65-4.27,0-7.92-6.43-14.34-14.37-14.34-1.44,0-2.83,.21-4.14,.6-2.14-3.12-5.93-5.19-10.24-5.19-.44,0-.87,.02-1.3,.06-1.69-7.95-7.75-13.82-14.96-13.82-.53,0-1.04,.03-1.56,.09-.4-.04-.81-.06-1.22-.06-7.21,0-13.27,5.88-14.96,13.82-.43-.04-.86-.06-1.3-.06-4.31,0-8.09,2.07-10.24,5.19-1.31-.39-2.7-.6-4.14-.6-7.94,0-14.37,6.42-14.37,14.34,0,1.49,.23,2.92,.65,4.27-2.19,.44-4.12,1.41-5.57,2.74-2.67-1.9-5.81-3-9.18-3-9.63,0-17.43,8.98-17.43,20.07,0,.18,0,.36,0,.53-5.64,1.61-9.75,6.66-9.75,12.65,0,3.05,1.07,5.86,2.86,8.09-4.42,1.81-7.45,5.47-7.45,9.68,0,2.62,1.17,5.02,3.12,6.9-.18-.01-.36-.02-.54-.02-3.96,0-7.17,3.34-7.17,7.45,0,.53,.06,1.05,.16,1.55-5.87,2.46-9.9,7.58-9.9,13.5,0,4.98,2.86,9.4,7.26,12.14-2.47,2.17-4.05,5.56-4.05,9.38,0,3.37,1.24,6.4,3.22,8.56-.07,.33-.11,.67-.11,1.01,0,2.56,2.05,4.71,4.82,5.29-.87,1.22-1.38,2.64-1.38,4.17,0,4.26,3.91,7.74,8.85,8.01,.07,.15,.13,.31,.2,.46-1.18,1.63-1.88,3.66-1.88,5.87,0,5.38,4.17,9.74,9.31,9.75-1.36,2.42-2.14,5.27-2.14,8.33,0,7.68,4.94,14.08,11.48,15.49,.31,6.21,5.7,11.15,12.31,11.15,.25,0,.5,0,.75-.02-.48,1.2-.75,2.58-.75,4.05,0,4.67,2.76,8.45,6.16,8.45,.03,0,.06,0,.09,0,.66,3.64,4.85,6.45,9.93,6.45,.04,0,.08,0,.12,0-.41,1.02-.64,2.16-.64,3.36,0,4.45,3.12,8.06,6.97,8.06,.02,0,.05,0,.07,0,1.17,2.42,3.46,4.06,6.09,4.06s4.96-1.67,6.12-4.12c.32,.03,.64,.04,.96,.04,7.26,0,13.14-6.53,13.14-14.59,0-1.64-.24-3.21-.69-4.69-24.61-6.86-44.23-37.69-49.57-77.29-3.9,.45-7.73-5.2-8.58-12.72-.87-7.6,1.63-14.23,5.57-14.82,1.74-.26,3.48,.71,4.94,2.52-.17-2.06-.79-3.82-1.66-4.91,.73-1.15,1.14-2.45,1.14-3.84,0-.19-.01-.38-.03-.57,3.57-1.55,6.02-4.8,6.02-8.56,0-.14,0-.27-.01-.4,1.34,.26,2.74,.4,4.19,.4,9.03,0,16.36-5.47,16.36-12.22,0-.44-.03-.87-.09-1.29,4.97-1.41,8.56-5.48,8.56-10.28,0-1.05-.17-2.07-.49-3.03,.47,.06,.95,.09,1.44,.09,3.8,0,7.06-1.78,8.55-4.34,.97,.21,1.99,.33,3.05,.33,3.32,0,6.32-1.13,8.49-2.95,.81,.33,1.73,.52,2.71,.52,.89,0,1.72-.15,2.47-.43,2.16,1.75,5.1,2.83,8.34,2.83,1.05,0,2.07-.11,3.05-.33,1.49,2.56,4.76,4.34,8.55,4.34,.49,0,.97-.03,1.44-.09-.32,.96-.49,1.98-.49,3.03,0,4.8,3.59,8.87,8.56,10.28-.06,.42-.09,.85-.09,1.29,0,6.75,7.32,12.22,16.36,12.22,1.45,0,2.85-.14,4.19-.4,0,.13-.01,.27-.01,.4,0,3.76,2.46,7.01,6.02,8.56-.02,.19-.03,.38-.03,.57,0,1.56,.52,3.01,1.42,4.25-.25,.93-.4,1.95-.42,3.03,1.08-.81,2.24-1.18,3.41-1.01,3.94,.58,6.44,7.22,5.57,14.82-.86,7.51-4.67,13.14-8.57,12.72-5.35,39.59-24.96,70.4-49.57,77.26-.45,1.47-.69,3.05-.69,4.69,0,8.05,5.88,14.59,13.14,14.59,.32,0,.65-.01,.96-.04,1.16,2.45,3.47,4.12,6.12,4.12s4.92-1.64,6.09-4.06c.02,0,.05,0,.07,0,3.85,0,6.97-3.61,6.97-8.06,0-1.2-.23-2.34-.63-3.36,.04,0,.08,0,.12,0,5.08,0,9.27-2.81,9.93-6.45,.03,0,.06,0,.09,0,3.4,0,6.16-3.78,6.16-8.45,0-1.47-.27-2.85-.75-4.05,.25,.01,.5,.02,.75,.02,6.61,0,12-4.94,12.31-11.15,6.54-1.41,11.48-7.81,11.48-15.49,0-3.06-.78-5.91-2.14-8.33,5.14,0,9.31-4.37,9.31-9.75,0-2.2-.7-4.24-1.88-5.87,.07-.15,.14-.3,.2-.46,4.94-.27,8.85-3.75,8.85-8.01,0-1.53-.5-2.95-1.38-4.17,2.76-.58,4.82-2.73,4.82-5.29,0-.35-.04-.68-.11-1.01,1.98-2.16,3.22-5.19,3.22-8.56,0-3.82-1.59-7.21-4.05-9.38Z"/></g><g><path class="cls-60" d="M969.02,1082.41c-37.31,0-67.81,27.07-69.88,78.86-.63-.16-1.26-.2-1.9-.12-4.5,.58-7.34,7.22-6.35,14.82,.98,7.52,5.34,13.16,9.79,12.72,6.92,45.03,34.89,78.72,68.35,78.72,38.66,0,69.99-44.98,69.99-100.46s-31.34-84.54-69.99-84.54Z"/><path class="cls-60" d="M949.85,1269.15l.07,45.46h40.54l-.07-34.25c-7.27-1.84-14.46-3.52-21.87-5.57-6.43-1.76-12.49-3.62-18.67-5.64Z"/><path class="cls-57" d="M969.02,1267.41c-6.65,0-13.08-1.33-19.17-3.81v5.56c6.18,2.03,12.24,3.88,18.67,5.64,7.41,2.05,14.6,3.73,21.87,5.57v-17.72c-6.74,3.1-13.92,4.77-21.37,4.77Z"/><polygon class="cls-69" points="990.39 1279.94 970.12 1305.29 949.86 1279.94 935.85 1285.27 957.23 1320.47 970.12 1311.16 970.12 1311.16 970.12 1311.16 983.03 1320.47 1004.4 1285.27 990.39 1279.94"/><path class="cls-67" d="M1040.8,1161.15c-.64-.08-1.28-.04-1.9,.12-2.07-51.78-32.56-78.85-69.87-78.86v92.5h0s-13.62,45.76-13.62,45.76c-.02,.13-.03,.27-.03,.41,0,1.33,.99,2.42,2.28,2.58h14.06s0,.01,0,.01l-2.69,5.69v38.03c33.45,0,61.42-33.69,68.34-78.72,4.45,.45,8.81-5.2,9.79-12.72,.99-7.6-1.86-14.23-6.35-14.82Z"/><path d="M969.01,1064.21c-96.89,0-68.79,122.52-68.34,124.45v.02h0c0,.33-.87,79.92,68.1,80.46,69.11,.54,68.6-80.46,68.6-80.46,0-1.82,29.3-124.47-68.36-124.47Zm44.81,159.57c-8.52,6.29-8-.64-25.05-.37l-25.62,.18c-3.72-.04-8.34-.1-13.87-.18-17.05-.27-16.54,6.66-25.05,.37-6.44-4.76-12.88-22.36-15.63-30.67h0c-.89-2.68-1.4-4.39-1.4-4.39h0s-3.22-19.75,8.31-49.44c38.61-3.37,42.19-32.88,74.36-32.88,12.92,0,22.86,12.06,30.24,26.94,14.41,32.96,10.76,55.38,10.76,55.38,0,0-8.52,28.77-17.03,35.07Z"/><path class="cls-67" d="M987.57,1231.49h-36.97c-.72,.04-1.29,.48-1.33,1.03,.82,6.47,9.34,11.56,19.73,11.56s19.1-5.2,19.76-11.78c-.14-.43-.61-.75-1.19-.8Z"/><g><polyline class="cls-8" points="945.42 1278.64 970.16 1387.3 933.85 1334.7 940.25 1322.79 931.99 1318.01 933.48 1285.86"/><polygon class="cls-12" points="949.86 1279.94 946.02 1281.4 945.42 1278.64 949.86 1279.94 949.86 1279.94"/></g><g><polyline class="cls-8" points="994.83 1278.64 970.16 1387.3 1006.4 1334.7 999.99 1322.79 1008.25 1318.01 1006.77 1285.86"/><polygon class="cls-12" points="990.39 1279.94 994.23 1281.4 994.83 1278.64 990.39 1279.94 990.39 1279.94"/></g><polygon class="cls-55" points="983.03 1320.47 979.56 1317.97 979.56 1317.97 970.12 1311.16 970.12 1311.16 957.23 1320.47 953.57 1314.43 970.16 1387.3 986.71 1314.39 983.03 1320.47"/><path class="cls-59" d="M1072.55,1329.56c-6.7-26.9-13.91-30.19-14.6-30.54-5.13-2.56-33.68-8.22-40.99-9.87-2.8-.63-6.45-1.77-10.18-3.05l1.47,31.91-8.26,4.78,6.41,11.91-36.24,52.6-36.31-52.6,6.41-11.91-8.26-4.78,1.47-31.91c-3.73,1.28-7.38,2.42-10.18,3.05-7.32,1.65-35.86,7.31-40.99,9.87-.69,.35-7.9,3.64-14.6,30.54-6.63,26.64-7.2,28.92-16.53,73.3h237.92c-9.33-44.38-9.9-46.66-16.53-73.3Z"/><polygon class="cls-44" points="974.95 1325.54 965.44 1325.54 963.75 1359.14 970.16 1387.3 976.55 1359.14 974.95 1325.54"/><polygon class="cls-44" points="965.3 1324.86 960.68 1317.97 970.12 1311.16 979.56 1317.97 974.82 1324.86 965.3 1324.86"/></g><g><path class="cls-60" d="M1298.99,582.52c-37.31,0-67.81,27.07-69.88,78.86-.63-.16-1.26-.2-1.9-.12-4.5,.58-7.34,7.22-6.35,14.82,.98,7.52,5.34,13.16,9.79,12.72,6.92,45.03,34.89,78.72,68.35,78.72,38.66,0,69.99-44.98,69.99-100.46s-31.34-84.54-69.99-84.54Z"/><path class="cls-60" d="M1279.82,769.26l.07,45.46h40.54l-.08-34.25c-7.27-1.84-14.46-3.52-21.87-5.57-6.43-1.76-12.49-3.62-18.67-5.64Z"/><path class="cls-57" d="M1298.99,767.52c-6.65,0-13.08-1.33-19.17-3.81v5.56c6.18,2.03,12.24,3.88,18.67,5.64,7.41,2.05,14.6,3.73,21.87,5.57v-17.72c-6.74,3.1-13.92,4.77-21.37,4.77Z"/><path class="cls-67" d="M1370.77,661.26c-.64-.08-1.28-.04-1.9,.12-2.07-51.78-32.56-78.85-69.87-78.86v92.5h0s-13.62,45.76-13.62,45.76c-.02,.13-.03,.27-.03,.41,0,1.33,.99,2.42,2.28,2.58h14.06s0,.01,0,.01l-2.69,5.69v38.03c33.45,0,61.42-33.69,68.34-78.72,4.45,.45,8.81-5.2,9.79-12.72,.99-7.6-1.86-14.23-6.35-14.82Z"/><polygon class="cls-55" points="1313 820.58 1309.53 818.08 1309.53 818.08 1300.09 811.27 1300.09 811.27 1287.21 820.58 1283.54 814.54 1300.13 887.42 1316.69 814.51 1313 820.58"/><polygon class="cls-16" points="1295.27 824.97 1290.65 818.08 1300.09 811.27 1309.53 818.08 1304.79 824.97 1295.27 824.97"/><path d="M1309.45,775.96c0,1.88-2.51,3.4-5.62,3.4h-7.49c-3.1,0-5.62-1.52-5.62-3.4v-18.15c0-1.88,2.51-3.4,5.62-3.4h7.49c3.1,0,5.62,1.52,5.62,3.4v18.15Z"/><path class="cls-21" d="M1419.06,902.97c-9.33-44.38-9.9-46.66-16.53-73.3-6.7-26.9-13.91-30.19-14.6-30.54-5.13-2.56-33.68-8.22-40.99-9.87-2.8-.63-8.83-2.6-12.56-3.88l-14.01-5.33c0,12.17-9.56,22.46-20.27,22.46s-20.26-10.29-20.26-22.46l-14.01,5.33c-3.73,1.28-9.76,3.25-12.56,3.88-7.32,1.65-35.86,7.31-40.99,9.87-.69,.35-7.9,3.64-14.6,30.54-6.63,26.64-7.2,28.92-16.53,73.3h98.69s40.54,.01,40.54,.01h0s98.69-.01,98.69-.01Z"/></g><g><path class="cls-6" d="M1292.62,95.34c-32.73,0-59.47,27.07-61.29,78.86-.55-.16-1.11-.2-1.67-.12-3.94,.58-6.44,7.22-5.57,14.82,.86,7.52,4.68,13.16,8.58,12.72,6.07,45.03,30.6,78.72,59.95,78.72,33.91,0,61.39-44.98,61.39-100.46s-27.48-84.54-61.39-84.54Z"/><path class="cls-7" d="M1355.58,174.08c-.56-.08-1.12-.04-1.67,.12-1.82-51.78-28.56-78.85-61.28-78.86v92.5h0s-11.95,45.76-11.95,45.76c-.02,.13-.03,.27-.03,.41,0,1.33,.87,2.42,2,2.58h12.33s0,.01,0,.01l-2.36,5.69v38.03c29.34,0,53.87-33.69,59.94-78.72,3.9,.45,7.73-5.2,8.58-12.72,.87-7.6-1.63-14.23-5.57-14.82Z"/><path class="cls-59" d="M1395.29,406.11c.35-21.65-2.06-51.03-14.6-74.15-21.51-39.67-74.43-40.38-87.07-39.95-12.64-.42-65.56,.29-87.07,39.95-12.54,23.12-14.95,52.5-14.6,74.15h203.34Z"/><path class="cls-7" d="M1292.62,280.34c-6.71,0-13.16-1.76-19.2-5.01v11.73c6.15,2.3,12.18,4.4,18.57,6.4,7.37,2.32,14.53,4.23,21.76,6.32v-25.54c-6.59,3.95-13.7,6.11-21.12,6.11Z"/><path class="cls-6" d="M1273.42,287.06l.07,51.56h40.33l-.07-38.84c-7.23-2.09-14.39-3.99-21.76-6.32-6.39-2-12.42-4.1-18.57-6.4Z"/><path class="cls-6" d="M1273.42,287.06l.07,51.56h40.33l-.07-38.84c-7.23-2.09-14.39-3.99-21.76-6.32-6.39-2-12.42-4.1-18.57-6.4Z"/><rect class="cls-46" x="1273.5" y="328.3" width="40.33" height="77.81"/><path class="cls-42" d="M1273.42,292.94v-17.61h.01c-20.4-10.97-36.07-38.96-40.76-73.71-3.9,.45-7.73-5.2-8.58-12.72-.87-7.6,1.63-14.23,5.57-14.82,.56-.08,1.12-.04,1.67,.12,0,0,3.77-31.1,9.78-33.97h102.58s6.67,2.89,10.21,33.97c.55-.16,1.11-.2,1.67-.12,3.94,.58,6.44,7.22,5.57,14.82-.86,7.52-4.68,13.16-8.58,12.72,0,.02,0,.04,0,.06-.06,.41-.12,.82-.17,1.23-.04,.29-.08,.58-.12,.87-.06,.4-.12,.81-.19,1.21-.05,.29-.09,.59-.14,.88-.06,.39-.13,.78-.2,1.17-.05,.3-.1,.61-.16,.91-.07,.37-.14,.74-.2,1.11-.06,.31-.11,.63-.17,.94-.07,.36-.14,.71-.21,1.07-.06,.32-.13,.65-.19,.97-.07,.34-.14,.67-.21,1.01-.07,.34-.14,.67-.22,1.01-.07,.31-.14,.62-.21,.94-.08,.35-.16,.71-.24,1.06-.07,.29-.14,.58-.21,.87-.09,.37-.18,.74-.27,1.11-.07,.27-.14,.53-.2,.8-.1,.39-.2,.78-.3,1.16-.06,.24-.13,.47-.19,.7-.11,.41-.22,.82-.34,1.23-.06,.21-.12,.42-.18,.63-.12,.43-.25,.86-.37,1.28-.06,.19-.11,.37-.17,.56-.13,.44-.27,.89-.41,1.33-.05,.16-.1,.32-.16,.49-.15,.46-.29,.92-.45,1.38-.05,.14-.09,.28-.14,.41-.16,.48-.32,.96-.49,1.44-.04,.11-.08,.21-.11,.32-.18,.5-.35,1.01-.54,1.5-.03,.09-.06,.17-.09,.25-.19,.52-.38,1.03-.58,1.55-.02,.05-.04,.11-.06,.16-.21,.54-.42,1.08-.63,1.61-.01,.03-.02,.06-.03,.08-.22,.56-.45,1.11-.68,1.66,0,0,0,0,0,0-7.16,17.11-17.48,30.4-29.57,37.65h.02v18.7c16.12,1.92,37.61,7.36,53.64,22.03,4.72-44.14,18.8-230.03-78.42-230.03s-75.81,186.72-69.43,230.33c16.04-14.86,37.66-20.37,53.88-22.32Z"/></g><g><path class="cls-60" d="M969.13,85.67c-37.31,0-67.81,27.07-69.88,78.86-.63-.16-1.26-.2-1.9-.12-4.5,.58-7.34,7.22-6.35,14.82,.98,7.52,5.34,13.16,9.79,12.72,6.92,45.03,34.89,78.72,68.35,78.72,38.66,0,69.99-44.98,69.99-100.46s-31.34-84.54-69.99-84.54Z"/><path class="cls-60" d="M949.96,272.4l.08,45.46h40.54l-.08-34.25c-7.27-1.84-14.46-3.52-21.87-5.57-6.43-1.76-12.49-3.62-18.67-5.64Z"/><path class="cls-57" d="M969.13,270.66c-6.65,0-13.07-1.33-19.17-3.81v5.56c6.18,2.03,12.24,3.88,18.67,5.64,7.41,2.05,14.6,3.73,21.87,5.57v-17.72c-6.74,3.1-13.92,4.77-21.37,4.77Z"/><polygon class="cls-46" points="990.5 283.19 970.23 308.54 949.97 283.19 935.96 288.52 957.34 323.72 970.23 314.41 970.23 314.41 970.23 314.41 983.14 323.72 1004.51 288.52 990.5 283.19"/><path class="cls-59" d="M1072.66,332.81c-6.7-26.9-13.91-30.19-14.6-30.54-5.13-2.56-33.68-8.22-40.99-9.87-3.4-.77-8.04-2.27-12.56-3.88h0s-21.37,35.2-21.37,35.2l-3.46-2.5h0s-9.44-6.81-9.44-6.81h0s0,0,0,0l-12.89,9.31-21.39-35.2,.06-.02c-4.55,1.62-9.21,3.13-12.63,3.9-7.32,1.65-35.86,7.3-40.99,9.87-.69,.35-7.9,3.64-14.6,30.54-6.63,26.64-7.2,28.92-16.53,73.3h237.92c-9.33-44.38-9.9-46.66-16.53-73.3Z"/><path class="cls-67" d="M1040.91,164.4c-.64-.08-1.28-.04-1.9,.12-2.07-51.78-32.56-78.85-69.87-78.86v92.5h0s-13.62,45.76-13.62,45.76c-.02,.13-.03,.27-.03,.41,0,1.33,.99,2.42,2.28,2.58h14.06s0,.01,0,.01l-2.69,5.69v38.03c33.45,0,61.42-33.69,68.34-78.72,4.45,.45,8.81-5.2,9.79-12.72,.99-7.6-1.86-14.23-6.35-14.82Z"/><path d="M899.25,164.52s-20.93-52.63-8.45-78.86c0,0,13.79-2.38,36.34-20.43,22.55-18.05,88.96-15.47,101.85,15.47,12.89,30.95,10.36,32.24,10.02,83.81,0,0-6.78-40.05-18.24-51.8,0,0-33.31,20.63-66.66,3.15-33.35-17.48-39.65-5.16-39.65,4.01s.82,26.23-15.2,44.63Z"/><polygon class="cls-8" points="913.94 406.11 901.7 406.11 901.7 297.08 913.94 294.42 913.94 406.11"/><polygon class="cls-8" points="1036.56 406.11 1024.31 406.11 1024.31 293.96 1036.56 296.59 1036.56 406.11"/><path class="cls-8" d="M995.92,328.28c5.24-11.53,0-24.97,0-24.97l-25.65,9.18-25.64-9.17h0s0,0,0,0h0s0,.02,0,.02c-.15,.39-5.15,13.58,0,24.93v.02h0s0,0,0,0h0s25.64-8.08,25.64-8.08l25.65,8.08Z"/><circle class="cls-18" cx="970.23" cy="315.8" r="7.92" transform="translate(-8.86 28.64) rotate(-1.68)"/></g><g><path class="cls-17" d="M955.95,588.34c-32.73,0-59.47,27.07-61.29,78.86-.55-.16-1.11-.2-1.67-.12-3.94,.58-6.44,7.22-5.57,14.82,.86,7.52,4.68,13.16,8.58,12.72,6.07,45.03,30.6,78.72,59.95,78.72,33.91,0,61.39-44.98,61.39-100.46s-27.48-84.54-61.39-84.54Z"/><path class="cls-33" d="M1018.91,667.08c-.56-.08-1.12-.04-1.67,.12-1.82-51.78-28.56-78.85-61.28-78.86v92.5h0s-11.95,45.76-11.95,45.76c-.02,.13-.03,.27-.03,.41,0,1.33,.87,2.42,2,2.58h12.33s0,.01,0,.01l-2.36,5.69v38.03c29.34,0,53.87-33.69,59.94-78.72,3.9,.45,7.73-5.2,8.58-12.72,.87-7.6-1.63-14.23-5.57-14.82Z"/><path d="M1043.87,642.46l-.06,.13c-2.27-61.01-79.03-60.11-79.03-60.11-131.06-23.32-59.98,165.44-59.98,165.44-9.44-132.22,52.11-119.35,52.11-119.35,0,0,14.77,27.26,60.33,38.62,0,0,6.69,.51,7.41,10.07,0,0-.37,8.66-2.66,12.89-2.37,4.36-6.09,4.45-6.09,4.45-1.06,1.44-2.84,47.07-38.82,72.62l.07,15.18s71.38-25.55,66.72-139.95Z"/><g><polygon class="cls-69" points="932.85 786.9 956.99 847.78 929.8 820.29 933.97 810.85 917.03 803.07 932.85 786.9"/><polygon class="cls-69" points="981.14 786.9 956.99 847.78 984.18 820.29 980.02 810.85 996.96 803.07 981.14 786.9"/></g><path class="cls-33" d="M977.08,782.88v-4.39l-19.56-5.19c-.52,.02-1.04,.03-1.56,.03-6.71,0-13.16-1.76-19.2-5.02v1.85l.02,16.2c-1.28,.15-2.59,.33-3.93,.53l24.15,60.88,13.64-34.4,6.47-16.31h0s4.03-10.15,4.03-10.15c-1.38-.21-2.73-.39-4.05-.54v-3.48Z"/><path class="cls-28" d="M1044.02,825.39c-14.16-26.12-41.94-35.34-62.87-38.48l15.8,16.16-16.94,7.77,4.17,9.44-7.03,7.11h0l-20.16,20.38-20.16-20.38h0l-7.03-7.11,4.17-9.44-16.94-7.77,15.82-16.17c-20.94,3.12-48.78,12.34-62.96,38.49-12.54,23.12-14.95,52.5-14.6,74.15h203.34c.35-21.65-2.06-51.03-14.6-74.15Z"/><path class="cls-25" d="M955.95,773.34c-6.68,0-13.11-1.75-19.13-4.98v6.95l40.33,10.7v-18.83c-6.61,3.98-13.75,6.15-21.2,6.15Z"/></g><g><path class="cls-6" d="M298.35,592.21c-32.73,0-59.47,27.07-61.29,78.86-.55-.16-1.11-.2-1.67-.12-3.94,.58-6.44,7.22-5.57,14.82,.86,7.52,4.68,13.16,8.58,12.72,6.07,45.03,30.6,78.72,59.95,78.72,33.91,0,61.39-44.98,61.39-100.46s-27.48-84.54-61.39-84.54Z"/><path class="cls-7" d="M361.31,670.95c-.56-.08-1.12-.04-1.67,.12-1.82-51.78-28.56-78.85-61.28-78.86v92.5h0s-11.95,45.76-11.95,45.76c-.02,.13-.03,.27-.03,.41,0,1.33,.87,2.42,2,2.58h12.33s0,.01,0,.01l-2.36,5.69v38.03c29.34,0,53.87-33.69,59.94-78.72,3.9,.45,7.73-5.2,8.58-12.72,.87-7.6-1.63-14.23-5.57-14.82Z"/><path class="cls-6" d="M279.15,773.61l.07,51.56h40.33l-.07-38.84c-7.23-2.09-14.39-3.99-21.76-6.32-6.39-2-12.42-4.1-18.57-6.4Z"/><path class="cls-6" d="M279.15,773.61l.07,51.56h40.33l-.07-38.84c-7.23-2.09-14.39-3.99-21.76-6.32-6.39-2-12.42-4.1-18.57-6.4Z"/><g><polygon class="cls-7" points="279.15 775.33 279.15 773.61 279.15 775.33 279.15 775.33"/><path class="cls-7" d="M298.35,777.21c7.42,0,14.54-2.16,21.12-6.11v15.22c-7.23-2.09-14.39-3.99-21.76-6.32-6.39-2-12.42-4.1-18.57-6.4v-1.42c6.04,3.25,12.49,5.02,19.2,5.02Z"/></g><path class="cls-11" d="M386.42,828.83c-14.92-27.51-44.94-36.28-66.16-38.93l13.32,5.07-21.37,35.2-12.9-9.31-12.89,9.31-21.39-35.2,13.28-5.06c-21.21,2.67-51.15,11.46-66.04,38.92-12.54,23.12-14.95,52.5-14.6,74.15h203.34c.35-21.65-2.06-51.03-14.6-74.15Z"/><polygon class="cls-69" points="319.48 789.64 299.33 814.95 279.08 789.64 264.94 794.97 286.33 830.17 299.22 820.86 299.22 820.86 299.22 820.86 312.12 830.17 333.49 794.97 319.48 789.64"/><polyline class="cls-53" points="274.61 788.34 299.35 897 263.03 844.4 269.44 832.49 261.18 827.71 262.66 795.56"/><polygon class="cls-45" points="279.17 789.64 275.24 791.12 274.61 788.34 279.17 789.64 279.17 789.64"/><polyline class="cls-53" points="324.02 788.34 299.35 897 335.59 844.4 329.18 832.49 337.44 827.71 335.96 795.56"/><polygon class="cls-45" points="319.48 789.64 323.4 791.09 324.02 788.34 319.48 789.64 319.48 789.64"/><polygon class="cls-55" points="312.21 830.17 308.75 827.67 308.75 827.67 299.31 820.86 299.31 820.86 286.42 830.17 282.75 824.13 299.35 897 315.9 824.09 312.21 830.17"/><polygon class="cls-8" points="304.14 835.23 294.63 835.23 292.94 868.84 299.35 897 305.74 868.84 304.14 835.23"/><polygon class="cls-8" points="294.49 834.56 289.87 827.67 299.31 820.86 308.75 827.67 304.01 834.56 294.49 834.56"/><path class="cls-47" d="M263.05,598.91c-1.05-3-1.62-6.2-1.62-9.53,0-17.08,14.89-30.92,33.26-30.92s33.26,13.84,33.26,30.92c0,1.78-.17,3.52-.48,5.22,41.55,18.01,32.17,76.47,32.17,76.47-6.59-18.23-18.19-20.5-43.48-22.65-25.29-2.15-54.98-18.2-54.98-18.2-.87,24.73-24.12,40.85-24.12,40.85,0,0-6.88-50.62,25.99-72.16Z"/></g><g><path class="cls-6" d="M1286.64,1081.77c-32.73,0-59.47,27.07-61.29,78.86-.55-.16-1.11-.2-1.67-.12-3.94,.58-6.44,7.22-5.57,14.82,.86,7.52,4.68,13.16,8.58,12.72,6.07,45.03,30.6,78.72,59.95,78.72,33.91,0,61.39-44.98,61.39-100.46s-27.49-84.54-61.39-84.54Z"/><path class="cls-7" d="M1349.6,1160.51c-.56-.08-1.12-.04-1.67,.12-1.82-51.78-28.56-78.85-61.28-78.86v92.5h0s-11.95,45.76-11.95,45.76c-.02,.13-.03,.27-.03,.41,0,1.33,.87,2.42,2,2.58h12.33s0,.01,0,.01l-2.36,5.69v38.03c29.34,0,53.87-33.69,59.94-78.72,3.9,.45,7.73-5.2,8.58-12.72,.87-7.6-1.63-14.23-5.57-14.82Z"/><g><polygon class="cls-59" points="1263.53 1290.21 1287.67 1351.09 1260.48 1323.6 1264.65 1314.16 1247.71 1306.39 1263.53 1290.21"/><polygon class="cls-59" points="1311.82 1290.21 1287.67 1351.09 1314.87 1323.6 1310.7 1314.16 1327.64 1306.39 1311.82 1290.21"/></g><path class="cls-7" d="M1307.76,1260.66c-6.59,3.95-13.7,6.11-21.13,6.11-6.71,0-13.16-1.76-19.2-5.01v9.35l40.33,10.7v-21.15Z"/><path class="cls-6" d="M1307.76,1286.2v-4.39l-40.33-10.7v2.37l.02,16.2c-1.28,.15-2.59,.33-3.93,.53l24.15,60.88,13.64-34.4,6.47-16.31h0s4.03-10.15,4.03-10.15c-1.38-.21-2.73-.39-4.05-.54v-3.48Z"/><path class="cls-59" d="M1374.71,1328.71c-14.16-26.12-41.94-35.34-62.87-38.48l15.8,16.16-16.94,7.77,4.17,9.44-7.03,7.11h0l-20.16,20.38-20.16-20.38h0l-7.03-7.11,4.17-9.44-16.94-7.77,15.82-16.17c-20.94,3.12-48.78,12.34-62.96,38.49-12.54,23.12-14.95,52.5-14.6,74.15h203.34c.35-21.65-2.06-51.03-14.6-74.15Z"/><path class="cls-31" d="M1300.37,1155.57s13.98-13.43,39.03-4.64c0,0-2.46,18.6-15.55,27.24-13.09,8.64-39.3-11.24-23.48-22.6Z"/><path d="M1287.67,1075.67c-82.47,0-70.98,127.66-70.98,161.43s47.73,34.32,50.74,34.39v-9.74c-20.39-10.98-36.07-38.97-40.75-73.71-3.9,.45-7.73-5.2-8.58-12.72-.87-7.6,1.63-14.23,5.57-14.82,.56-.08,1.12-.04,1.67,.12,0,0,8.55-22.08,34.29-23.8,25.74-1.72,52.42-14.61,52.42-25.79,0,0,28.49,10.35,35.86,49.59,.55-.16,1.11-.2,1.67-.12,3.94,.58,6.44,7.22,5.57,14.82-.86,7.52-4.68,13.16-8.58,12.72-4.53,33.64-19.38,60.93-38.82,72.6v10.85s50.89-.62,50.89-34.4,11.49-161.43-70.98-161.43Z"/><path class="cls-8" d="M1356.51,1158.09l-.64-4.4-13.39,4.21c1.96-5.69,2.54-9.98,2.54-9.98-29.63-10.41-46.22,5.64-46.22,5.64-3.21,2.32-4.96,4.94-5.59,7.63h0s-6.42,1.38-11.07,0c0,0,0,0,0,0-.63-2.69-2.38-5.31-5.59-7.63,0,0-16.59-16.05-46.22-5.64,0,0,.6,4.45,2.64,10.29l-13.62-3.74-.6,4.21,16.4,4.92c2.8,6.02,7.11,12.48,13.65,16.84,10.92,7.27,29.48-2.26,33.01-13.29h0s7.64-1.25,11.7,0h0c3.52,11.03,22.09,20.56,33.01,13.29,6.74-4.49,11.11-11.22,13.9-17.39l16.07-4.97Zm-105.02,20.08c-13.09-8.64-15.55-27.24-15.55-27.24,25.05-8.79,39.03,4.64,39.03,4.64,15.82,11.36-10.39,31.24-23.48,22.6Zm72.36,0c-13.09,8.64-39.3-11.24-23.48-22.6,0,0,13.98-13.43,39.03-4.64,0,0-2.46,18.6-15.55,27.24Z"/><path class="cls-31" d="M1274.97,1155.57s-13.98-13.43-39.03-4.64c0,0,2.46,18.6,15.55,27.24,13.09,8.64,39.3-11.24,23.48-22.6Z"/></g><g><path class="cls-19" d="M315.24,1082.41c-37.31,0-67.81,27.07-69.88,78.86-.63-.16-1.26-.2-1.9-.12-4.5,.58-7.34,7.22-6.35,14.82,.98,7.52,5.34,13.16,9.79,12.72,6.92,45.03,34.89,78.72,68.35,78.72,38.65,0,69.99-44.98,69.99-100.46s-31.34-84.54-69.99-84.54Z"/><path class="cls-19" d="M296.08,1269.15l.08,45.46h40.54l-.07-34.25c-7.27-1.84-14.46-3.52-21.87-5.57-6.43-1.76-12.49-3.62-18.67-5.64Z"/><path class="cls-68" d="M315.24,1267.41c-6.65,0-13.08-1.33-19.17-3.81v5.56c6.18,2.03,12.24,3.88,18.67,5.64,7.41,2.05,14.6,3.73,21.87,5.57v-17.72c-6.74,3.1-13.92,4.77-21.37,4.77Z"/><polygon class="cls-50" points="336.61 1279.94 316.35 1305.29 296.08 1279.94 282.07 1285.27 303.46 1320.47 316.35 1311.16 316.35 1311.16 316.35 1311.16 329.25 1320.47 350.62 1285.27 336.61 1279.94"/><path class="cls-40" d="M418.78,1329.56c-6.7-26.9-13.91-30.19-14.6-30.54-5.13-2.56-33.68-8.22-40.99-9.87-3.4-.77-8.04-2.27-12.56-3.88h0s-21.37,35.2-21.37,35.2l-3.46-2.5h0s-9.44-6.81-9.44-6.81h0s0,0,0,0l-12.89,9.31-21.39-35.2,.06-.02c-4.55,1.62-9.21,3.13-12.63,3.9-7.32,1.65-35.86,7.3-40.99,9.87-.69,.35-7.9,3.64-14.6,30.54-6.63,26.64-7.2,28.92-16.53,73.3h237.92c-9.33-44.38-9.9-46.66-16.53-73.3Z"/><g><polygon class="cls-13" points="323.56 1402.86 308.94 1402.86 311.59 1325.49 321.1 1325.49 323.56 1402.86"/><polygon class="cls-13" points="311.53 1324.86 306.91 1317.97 316.35 1311.16 325.79 1317.97 321.04 1324.86 311.53 1324.86"/></g><path class="cls-68" d="M387.02,1161.15c-.64-.08-1.28-.04-1.9,.12-2.07-51.78-32.56-78.85-69.87-78.86v92.5h0s-13.62,45.76-13.62,45.76c-.02,.13-.03,.27-.03,.41,0,1.33,.99,2.42,2.28,2.58h14.06s0,.01,0,.01l-2.69,5.69v38.03c33.45,0,61.42-33.69,68.34-78.72,4.45,.45,8.81-5.2,9.79-12.72,.99-7.6-1.86-14.23-6.35-14.82Z"/><path d="M377.61,1192.52l-31.23,23.95-7.77,16.62h0c-4.91-5.1-13.65-8.49-23.62-8.49s-18.31,3.25-23.28,8.16l-7.61-16.28-31.23-23.95h-5.33c4.98,53.52,37.39,67.91,42.52,69.87,4.55,5.94,14,10.02,24.93,10.02s20.13-3.98,24.75-9.79h0s37.79-11.96,43.2-70.1h-5.33Zm-44.38,59.36c0,4.9-5.41,7.56-12.85,8.38v-6.46c0-1.19-1.59-2.15-3.55-2.15h-4.73c-1.96,0-3.55,.96-3.55,2.15v6.33c-6.9-.95-11.82-3.59-11.82-8.25v-7.14c0-6.02,7.65-9.77,17.73-9.77s18.76,3.76,18.76,9.77v7.14Z"/><path d="M245.37,1161.27s-4.17-81.47,69.63-81.47,70.13,81.47,70.13,81.47c0,0-18.68-43.65-69.4-43.65s-70.35,43.65-70.35,43.65Z"/></g><g><path class="cls-6" d="M634.25,1092.09c-32.73,0-59.47,27.07-61.29,78.86-.55-.16-1.11-.2-1.67-.12-3.94,.58-6.44,7.22-5.57,14.82,.86,7.52,4.68,13.16,8.58,12.72,6.07,45.03,30.6,78.72,59.95,78.72,33.91,0,61.39-44.98,61.39-100.46s-27.48-84.54-61.39-84.54Z"/><path class="cls-7" d="M697.21,1170.83c-.56-.08-1.12-.04-1.67,.12-1.82-51.78-28.56-78.85-61.28-78.86v92.5h0s-11.95,45.76-11.95,45.76c-.02,.13-.03,.27-.03,.41,0,1.33,.87,2.42,2,2.58h12.33s0,.01,0,.01l-2.36,5.69v38.03c29.34,0,53.87-33.69,59.94-78.72,3.9,.45,7.73-5.2,8.58-12.72,.87-7.6-1.63-14.23-5.57-14.82Z"/><path class="cls-41" d="M736.92,1404.58c.35-21.65-2.06-51.03-14.6-74.15-21.51-39.67-74.43-40.38-87.07-39.95-12.64-.42-65.56,.29-87.07,39.95-12.54,23.12-14.95,52.5-14.6,74.15h203.34Z"/><rect class="cls-36" x="615.12" y="1326.76" width="40.33" height="77.81"/><path class="cls-7" d="M634.25,1277.08c-6.71,0-13.16-1.76-19.2-5.02v8.51c6.15,2.3,12.18,4.4,18.57,6.4,7.37,2.32,14.53,4.23,21.76,6.32v-22.31c-6.59,3.95-13.7,6.11-21.12,6.11Z"/><path class="cls-6" d="M655.37,1287.92v5.37c-7.23-2.09-14.39-3.99-21.76-6.32-6.39-2-12.42-4.1-18.56-6.4l.07,46.18h40.33l-.07-38.84Z"/><path class="cls-42" d="M572.96,1170.95s-19.41-87.26,61.28-87.26,61.3,87.26,61.3,87.26c0,0-44.09-26.68-47.76-40,0,0-24.6,10.32-41.79,8.31-17.19-2.01-30.53,22.99-33.03,31.69Z"/><path class="cls-42" d="M678.46,1296.34c14.26-4.93,24.51-18.46,24.51-34.4,0-13.02-6.84-24.44-17.13-30.87-7.18,18.19-17.86,32.34-30.47,39.91v20.42c6.98,.83,14.97,2.33,23.09,4.94Z"/></g><g><path class="cls-60" d="M636.33,1588.68c-37.31,0-67.81,27.07-69.88,78.86-.63-.16-1.26-.2-1.9-.12-4.5,.58-7.34,7.22-6.35,14.82,.98,7.52,5.34,13.16,9.79,12.72,6.92,45.03,34.89,78.72,68.35,78.72,38.66,0,69.99-44.98,69.99-100.46s-31.34-84.54-69.99-84.54Z"/><path class="cls-60" d="M617.16,1775.41l.07,45.46h40.54l-.07-34.25c-7.27-1.84-14.46-3.52-21.87-5.57-6.43-1.76-12.49-3.62-18.67-5.64Z"/><path class="cls-57" d="M636.33,1773.67c-6.65,0-13.08-1.33-19.17-3.81v5.55c6.18,2.03,12.24,3.88,18.67,5.64,7.41,2.05,14.6,3.73,21.87,5.57v-17.72c-6.74,3.1-13.92,4.77-21.37,4.77Z"/><path class="cls-67" d="M708.11,1667.41c-.64-.08-1.28-.04-1.9,.12-2.07-51.78-32.56-78.85-69.87-78.86v92.5h0s-13.62,45.76-13.62,45.76c-.02,.13-.03,.27-.03,.41,0,1.33,.99,2.42,2.28,2.58h14.06s0,.01,0,.01l-2.69,5.69v38.03c33.45,0,61.42-33.69,68.34-78.72,4.45,.45,8.81-5.2,9.79-12.72,.99-7.6-1.86-14.23-6.35-14.82Z"/><polygon class="cls-55" points="650.34 1826.73 646.87 1824.23 646.87 1824.24 637.43 1817.42 637.43 1817.42 624.54 1826.73 620.88 1820.7 637.47 1893.57 654.02 1820.66 650.34 1826.73"/><polygon class="cls-16" points="632.61 1831.13 627.99 1824.24 637.43 1817.42 646.87 1824.24 642.13 1831.13 632.61 1831.13"/><path class="cls-27" d="M637.95,1729.95c-15.36,0-27.82,8.06-27.82,18.01v11.8c0,9.95,12.46,18.01,27.82,18.01s27.82-8.06,27.82-18.01v-11.8c0-9.95-12.46-18.01-27.82-18.01Zm18.24,27.29c0,4.9-5.41,7.56-12.85,8.38v-6.46c0-1.19-1.59-2.15-3.55-2.15h-4.73c-1.96,0-3.55,.96-3.55,2.15v6.33c-6.9-.95-11.82-3.59-11.82-8.25v-7.14c0-6.02,7.65-9.77,17.73-9.77s18.76,3.76,18.76,9.77v7.14Z"/><path class="cls-11" d="M739.87,1835.82c-6.7-26.9-13.91-30.19-14.6-30.54-5.13-2.56-33.68-8.22-40.99-9.87-2.8-.63-8.83-2.6-12.56-3.88l-14.01-5.33c0,12.17-9.56,22.46-20.27,22.46s-20.26-10.29-20.26-22.46l-14.01,5.33c-3.73,1.28-9.76,3.25-12.56,3.88-7.32,1.65-35.86,7.31-40.99,9.87-.69,.35-7.9,3.64-14.6,30.54-6.63,26.64-7.2,28.92-16.53,73.3h237.92c-9.33-44.38-9.9-46.66-16.53-73.3Z"/><path class="cls-27" d="M551.56,1616.2l14.81-1.58s18.25-25.58,54.95-29.55c4.92-.9,10.28-1.39,16.12-1.39,76.56,0,68.78,83.88,68.78,83.88l-1.78,5.83-14.4-21.15c8.92-4.19,1.72-16.12,1.72-16.12-5.37-9.56-23.64-29.44-47.49-14.4-21.6,13.62-63.88,11.8-63.88,11.8-6.23,7.52,1.34,17.86,1.34,17.86l-11.82,19.26-3.44-3.07s-1.15-17.34,4.79-36.25c-7.74-2.42-17.86-7.06-19.68-15.1Z"/></g><g><path class="cls-60" d="M1295.28,1588.68c-37.31,0-67.81,27.07-69.88,78.86-.63-.16-1.26-.2-1.9-.12-4.5,.58-7.34,7.22-6.35,14.82,.98,7.52,5.34,13.16,9.79,12.72,6.92,45.03,34.89,78.72,68.35,78.72,38.66,0,69.99-44.98,69.99-100.46s-31.34-84.54-69.99-84.54Z"/><path class="cls-60" d="M1276.11,1775.41l.08,45.46h40.54l-.08-34.25c-7.27-1.84-14.46-3.52-21.87-5.57-6.43-1.76-12.49-3.62-18.67-5.64Z"/><path class="cls-57" d="M1295.28,1773.67c-6.65,0-13.07-1.33-19.17-3.82v5.56c6.18,2.02,12.24,3.88,18.67,5.64,7.41,2.05,14.6,3.73,21.87,5.57v-17.72c-6.74,3.1-13.92,4.77-21.37,4.77Z"/><polygon class="cls-8" points="1316.65 1786.2 1296.38 1811.55 1276.12 1786.2 1262.11 1791.53 1283.49 1826.73 1296.38 1817.42 1296.38 1817.42 1296.38 1817.42 1309.29 1826.73 1330.66 1791.53 1316.65 1786.2"/><path class="cls-21" d="M1398.81,1835.82c-6.7-26.9-13.91-30.19-14.6-30.54-5.13-2.56-33.68-8.22-40.99-9.87-3.4-.77-8.04-2.27-12.56-3.88h0s-21.37,35.2-21.37,35.2l-3.46-2.5h0s-9.44-6.81-9.44-6.81h0l-12.89,9.31-21.39-35.2,.06-.02c-4.55,1.62-9.21,3.13-12.63,3.9-7.32,1.65-35.86,7.3-40.99,9.87-.69,.35-7.9,3.64-14.6,30.54-6.63,26.64-7.2,28.92-16.53,73.3h237.92c-9.33-44.38-9.9-46.66-16.53-73.3Z"/><path class="cls-67" d="M1367.06,1667.41c-.64-.08-1.28-.04-1.9,.12-2.07-51.78-32.56-78.85-69.87-78.86v92.5h0s-13.62,45.76-13.62,45.76c-.02,.14-.03,.27-.03,.41,0,1.33,.99,2.42,2.28,2.58h14.06s0,.01,0,.01l-2.69,5.69v38.03c33.45,0,61.42-33.7,68.34-78.72,4.45,.45,8.81-5.2,9.79-12.72,.99-7.6-1.86-14.23-6.35-14.82Z"/><path class="cls-27" d="M1225.4,1667.53s-20.93-52.63-8.45-78.86c0,0,13.79-2.38,36.34-20.43,22.55-18.05,88.96-15.47,101.85,15.47,12.89,30.95,10.36,32.24,10.02,83.81,0,0-6.78-40.05-18.24-51.8,0,0-33.31,20.63-66.66,3.15-33.35-17.48-39.65-5.16-39.65,4.01s.82,26.23-15.2,44.63Z"/><path class="cls-1" d="M1322.07,1831.29c5.24-11.53,0-24.97,0-24.97l-25.65,9.18-25.64-9.17h0s0,0,0,0h0s0,.02,0,.02c-.15,.39-5.15,13.58,0,24.93v.02h0s0,0,0,0h0s25.64-8.08,25.64-8.08l25.65,8.08Z"/><path class="cls-65" d="M1304.3,1818.81c0,4.37-3.55,7.92-7.92,7.92s-7.92-3.55-7.92-7.92,3.55-7.92,7.92-7.92,7.92,3.55,7.92,7.92Z"/><path class="cls-27" d="M1275.97,1734.24c10.93-9.34,20.41,0,20.41,0,0,0,9.48-9.34,20.41,0,10.93,9.34,10.93,10.03,14.51,10.18,0,0-1.29,3.6-7.88,1.59-6.59-2.01-21.99-8.02-27.04-6.3-5.05-1.72-20.45,4.3-27.04,6.3-6.59,2.01-7.88-1.59-7.88-1.59,3.58-.16,3.58-.84,14.51-10.18Z"/></g></g><g id="text"><text class="cls-29" transform="translate(172.37 438.37)"><tspan x="0" y="0">The Anal</tspan><tspan class="cls-30" x="122.69" y="0">y</tspan><tspan x="138.32" y="0">st In</tspan><tspan class="cls-30" x="199.09" y="0">t</tspan><tspan x="210.38" y="0">ern</tspan></text><text class="cls-38" transform="translate(198.79 469.48)"><tspan class="cls-58" x="0" y="0">J</tspan><tspan x="11.14" y="0">unio</tspan><tspan class="cls-5" x="53.18" y="0">r</tspan><tspan x="60.88" y="0" xml:space="preserve"> -</tspan><tspan class="cls-2" x="77.9" y="0"> </tspan><tspan x="83.92" y="0">Ana</tspan><tspan class="cls-22" x="120.82" y="0">l</tspan><tspan x="126.44" y="0">ytica</tspan><tspan class="cls-52" x="172.98" y="0">l</tspan><tspan x="178.4" y="0" xml:space="preserve"> - </tspan><tspan class="cls-15" x="-15.23" y="24">H</tspan><tspan x="-.71" y="24">umb</tspan><tspan class="cls-22" x="43.23" y="24">l</tspan><tspan x="48.85" y="24">ypaid -</tspan><tspan class="cls-2" x="117.91" y="24"> </tspan><tspan class="cls-43" x="123.93" y="24">A</tspan><tspan class="cls-14" x="137.03" y="24">ssoci</tspan><tspan class="cls-37" x="186.63" y="24">a</tspan><tspan x="197.55" y="24">te</tspan></text><text class="cls-29" transform="translate(512.73 438.37)"><tspan x="0" y="0">The Ha</tspan><tspan class="cls-48" x="97.85" y="0">ck</tspan><tspan x="128.93" y="0">athon</tspan><tspan class="cls-61" x="210.91" y="0">-</tspan><tspan x="223.99" y="0">er</tspan></text><text class="cls-38" transform="translate(536.63 469.48)"><tspan class="cls-58" x="0" y="0">J</tspan><tspan x="11.14" y="0">unio</tspan><tspan class="cls-5" x="53.18" y="0">r</tspan><tspan class="cls-14" x="60.88" y="0" xml:space="preserve"> -</tspan><tspan class="cls-2" x="77.9" y="0"> </tspan><tspan x="83.92" y="0">Ana</tspan><tspan class="cls-22" x="120.82" y="0">l</tspan><tspan x="126.44" y="0">ytica</tspan><tspan class="cls-52" x="172.98" y="0">l</tspan><tspan x="178.4" y="0" xml:space="preserve"> - </tspan><tspan class="cls-15" x="-30.58" y="24">H</tspan><tspan x="-16.06" y="24">umb</tspan><tspan class="cls-22" x="27.88" y="24">l</tspan><tspan x="33.5" y="24">ypaid - </tspan><tspan class="cls-20" x="109.38" y="24">I</tspan><tspan x="115.2" y="24">ndepende</tspan><tspan class="cls-35" x="212.2" y="24">n</tspan><tspan x="224.44" y="24">t</tspan></text><text class="cls-29" transform="translate(825.13 438.37)"><tspan x="0" y="0">The Business Anal</tspan><tspan class="cls-30" x="249.92" y="0">y</tspan><tspan x="265.56" y="0">st</tspan></text><text class="cls-38" transform="translate(868.45 469.48)"><tspan class="cls-58" x="0" y="0">J</tspan><tspan x="11.14" y="0">unio</tspan><tspan class="cls-5" x="53.18" y="0">r</tspan><tspan class="cls-14" x="60.88" y="0" xml:space="preserve"> -</tspan><tspan class="cls-2" x="77.9" y="0"> </tspan><tspan x="83.92" y="0">Ana</tspan><tspan class="cls-22" x="120.82" y="0">l</tspan><tspan x="126.44" y="0">ytica</tspan><tspan class="cls-52" x="172.98" y="0">l</tspan><tspan x="178.4" y="0" xml:space="preserve"> - </tspan><tspan class="cls-3" x=".81" y="24">W</tspan><tspan x="19.35" y="24">ellpaid -</tspan><tspan class="cls-2" x="101.87" y="24"> </tspan><tspan class="cls-43" x="107.89" y="24">A</tspan><tspan x="120.99" y="24">ssoci</tspan><tspan class="cls-23" x="170.59" y="24">a</tspan><tspan x="181.51" y="24">te</tspan></text><text class="cls-29" transform="translate(1157.84 438.37)"><tspan x="0" y="0">The </tspan><tspan class="cls-26" x="59.33" y="0">T</tspan><tspan x="77.2" y="0">ableau Champ</tspan></text><text class="cls-38" transform="translate(1194.25 469.48)"><tspan class="cls-58" x="0" y="0">J</tspan><tspan x="11.14" y="0">unio</tspan><tspan class="cls-5" x="53.18" y="0">r</tspan><tspan class="cls-14" x="60.88" y="0" xml:space="preserve"> -</tspan><tspan class="cls-2" x="77.9" y="0"> </tspan><tspan x="83.92" y="0">Ana</tspan><tspan class="cls-22" x="120.82" y="0">l</tspan><tspan x="126.44" y="0">ytica</tspan><tspan class="cls-52" x="172.98" y="0">l</tspan><tspan x="178.4" y="0" xml:space="preserve"> - </tspan><tspan class="cls-24" x="-14.54" y="24">W</tspan><tspan x="4" y="24">ellpaid - </tspan><tspan class="cls-43" x="93.34" y="24">I</tspan><tspan class="cls-14" x="99.16" y="24">ndepende</tspan><tspan class="cls-49" x="196.16" y="24">n</tspan><tspan class="cls-14" x="208.4" y="24">t</tspan></text><text class="cls-29" transform="translate(221.95 1438.55)"><tspan x="0" y="0">The P</tspan><tspan class="cls-32" x="76.9" y="0">r</tspan><tspan x="88.65" y="0">o</tspan><tspan class="cls-48" x="105.79" y="0">f</tspan><tspan x="115.95" y="0">essor</tspan></text><text class="cls-38" transform="translate(209.53 1469.66)"><tspan x="0" y="0">Senio</tspan><tspan class="cls-5" x="54.06" y="0">r</tspan><tspan class="cls-14" x="61.76" y="0" xml:space="preserve"> -</tspan><tspan class="cls-39" x="78.78" y="0"> </tspan><tspan class="cls-66" x="84.8" y="0">Ana</tspan><tspan class="cls-22" x="121.7" y="0">l</tspan><tspan class="cls-66" x="127.32" y="0">ytica</tspan><tspan class="cls-52" x="173.86" y="0">l</tspan><tspan class="cls-14" x="179.28" y="0" xml:space="preserve"> - </tspan><tspan class="cls-15" x="-14.79" y="24">H</tspan><tspan x="-.27" y="24">umb</tspan><tspan class="cls-22" x="43.67" y="24">l</tspan><tspan x="49.29" y="24">ypaid -</tspan><tspan class="cls-2" x="118.35" y="24"> </tspan><tspan class="cls-43" x="124.37" y="24">A</tspan><tspan class="cls-14" x="137.47" y="24">ssoci</tspan><tspan class="cls-37" x="187.07" y="24">a</tspan><tspan x="197.99" y="24">te</tspan></text><text class="cls-29" transform="translate(496.5 1438.55)"><tspan x="0" y="0">The G</tspan><tspan class="cls-64" x="80.95" y="0">o</tspan><tspan class="cls-62" x="97.95" y="0">v</tspan><tspan x="112.62" y="0">. S</tspan><tspan class="cls-48" x="143.57" y="0">t</tspan><tspan x="154.99" y="0">atistician</tspan></text><text class="cls-38" transform="translate(536.19 1469.66)"><tspan x="0" y="0">Senio</tspan><tspan class="cls-54" x="54.06" y="0">r</tspan><tspan x="61.76" y="0" xml:space="preserve"> -</tspan><tspan class="cls-2" x="78.78" y="0"> </tspan><tspan x="84.8" y="0">Ana</tspan><tspan class="cls-22" x="121.7" y="0">l</tspan><tspan class="cls-14" x="127.32" y="0">ytica</tspan><tspan class="cls-52" x="173.86" y="0">l</tspan><tspan x="179.28" y="0" xml:space="preserve"> - </tspan><tspan class="cls-15" x="-30.14" y="24">H</tspan><tspan x="-15.62" y="24">umb</tspan><tspan class="cls-22" x="28.32" y="24">l</tspan><tspan x="33.94" y="24">ypaid - </tspan><tspan class="cls-20" x="109.82" y="24">I</tspan><tspan x="115.64" y="24">ndepende</tspan><tspan class="cls-35" x="212.64" y="24">n</tspan><tspan x="224.88" y="24">t</tspan></text><text class="cls-29" transform="translate(861.04 1438.55)"><tspan x="0" y="0">The BI Mana</tspan><tspan class="cls-48" x="174.55" y="0">g</tspan><tspan x="191.02" y="0">er</tspan></text><text class="cls-38" transform="translate(868.01 1469.66)"><tspan x="0" y="0">Senio</tspan><tspan class="cls-54" x="54.06" y="0">r</tspan><tspan x="61.76" y="0" xml:space="preserve"> -</tspan><tspan class="cls-2" x="78.78" y="0"> </tspan><tspan x="84.8" y="0">Ana</tspan><tspan class="cls-22" x="121.7" y="0">l</tspan><tspan class="cls-14" x="127.32" y="0">ytica</tspan><tspan class="cls-52" x="173.86" y="0">l</tspan><tspan x="179.28" y="0" xml:space="preserve"> - </tspan><tspan class="cls-3" x="1.25" y="24">W</tspan><tspan x="19.79" y="24">ellpaid -</tspan><tspan class="cls-2" x="102.31" y="24"> </tspan><tspan class="cls-43" x="108.33" y="24">A</tspan><tspan x="121.43" y="24">ssoci</tspan><tspan class="cls-23" x="171.03" y="24">a</tspan><tspan x="181.95" y="24">te</tspan></text><text class="cls-29" transform="translate(1163.12 1438.55)"><tspan x="0" y="0">The ML </tspan><tspan class="cls-48" x="111.73" y="0">C</tspan><tspan x="131.78" y="0">onsul</tspan><tspan class="cls-48" x="208.62" y="0">t</tspan><tspan x="220.04" y="0">ant</tspan></text><text class="cls-38" transform="translate(1193.81 1469.66)"><tspan x="0" y="0">Senio</tspan><tspan class="cls-54" x="54.06" y="0">r</tspan><tspan x="61.76" y="0" xml:space="preserve"> -</tspan><tspan class="cls-2" x="78.78" y="0"> </tspan><tspan x="84.8" y="0">Ana</tspan><tspan class="cls-22" x="121.7" y="0">l</tspan><tspan class="cls-14" x="127.32" y="0">ytica</tspan><tspan class="cls-52" x="173.86" y="0">l</tspan><tspan x="179.28" y="0" xml:space="preserve"> - </tspan><tspan class="cls-24" x="-14.1" y="24">W</tspan><tspan x="4.44" y="24">ellpaid - </tspan><tspan class="cls-43" x="93.78" y="24">I</tspan><tspan class="cls-14" x="99.6" y="24">ndepende</tspan><tspan class="cls-49" x="196.6" y="24">n</tspan><tspan class="cls-14" x="208.84" y="24">t</tspan></text><text class="cls-29" transform="translate(162.73 1946.6)"><tspan x="0" y="0">The G</tspan><tspan class="cls-56" x="80.95" y="0">r</tspan><tspan x="92.84" y="0">aphics Edi</tspan><tspan class="cls-30" x="235.11" y="0">t</tspan><tspan x="246.4" y="0">or</tspan></text><text class="cls-38" transform="translate(205.36 1977.71)"><tspan x="0" y="0">Senio</tspan><tspan class="cls-54" x="54.06" y="0">r</tspan><tspan x="61.76" y="0" xml:space="preserve"> - C</tspan><tspan class="cls-51" x="99.32" y="0">r</tspan><tspan x="107.16" y="0">e</tspan><tspan class="cls-37" x="118.7" y="0">a</tspan><tspan x="129.62" y="0">tive - </tspan><tspan class="cls-15" x="-21.8" y="24">H</tspan><tspan x="-7.28" y="24">umb</tspan><tspan class="cls-22" x="36.66" y="24">l</tspan><tspan x="42.28" y="24">ypaid -</tspan><tspan class="cls-2" x="111.34" y="24"> </tspan><tspan class="cls-43" x="117.36" y="24">A</tspan><tspan class="cls-14" x="130.46" y="24">ssoci</tspan><tspan class="cls-37" x="180.06" y="24">a</tspan><tspan x="190.98" y="24">te</tspan></text><text class="cls-29" transform="translate(483.46 1946.6)"><tspan x="0" y="0">The Scien</tspan><tspan class="cls-48" x="133.08" y="0">c</tspan><tspan x="147.39" y="0">e Illust</tspan><tspan class="cls-56" x="241.49" y="0">r</tspan><tspan x="253.37" y="0">a</tspan><tspan class="cls-30" x="269.31" y="0">t</tspan><tspan x="280.6" y="0">or</tspan></text><text class="cls-38" transform="translate(543.2 1977.71)"><tspan x="0" y="0">Senio</tspan><tspan class="cls-5" x="54.06" y="0">r</tspan><tspan class="cls-14" x="61.76" y="0" xml:space="preserve"> - C</tspan><tspan class="cls-51" x="99.32" y="0">r</tspan><tspan x="107.16" y="0">e</tspan><tspan class="cls-37" x="118.7" y="0">a</tspan><tspan x="129.62" y="0">tive - </tspan><tspan class="cls-15" x="-37.15" y="24">H</tspan><tspan x="-22.63" y="24">umb</tspan><tspan class="cls-22" x="21.31" y="24">l</tspan><tspan x="26.93" y="24">ypaid - </tspan><tspan class="cls-20" x="102.81" y="24">I</tspan><tspan x="108.63" y="24">ndepende</tspan><tspan class="cls-35" x="205.63" y="24">n</tspan><tspan x="217.87" y="24">t</tspan></text><text class="cls-29" transform="translate(822.97 1946.6)"><tspan x="0" y="0">The C</tspan><tspan class="cls-32" x="79.55" y="0">r</tspan><tspan x="91.31" y="0">eati</tspan><tspan class="cls-10" x="143.24" y="0">v</tspan><tspan x="158.78" y="0">e Di</tspan><tspan class="cls-32" x="212.5" y="0">r</tspan><tspan x="224.25" y="0">ec</tspan><tspan class="cls-30" x="253.94" y="0">t</tspan><tspan x="265.23" y="0">or</tspan></text><text class="cls-38" transform="translate(881.89 1977.71)"><tspan x="0" y="0">Senio</tspan><tspan class="cls-54" x="54.06" y="0">r</tspan><tspan x="61.76" y="0" xml:space="preserve"> - C</tspan><tspan class="cls-51" x="99.32" y="0">r</tspan><tspan x="107.16" y="0">e</tspan><tspan class="cls-37" x="118.7" y="0">a</tspan><tspan x="129.62" y="0">tive - </tspan><tspan class="cls-24" x="-5.76" y="24">W</tspan><tspan x="12.78" y="24">ellpaid -</tspan><tspan class="cls-2" x="95.3" y="24"> </tspan><tspan class="cls-43" x="101.32" y="24">A</tspan><tspan class="cls-14" x="114.42" y="24">ssoci</tspan><tspan class="cls-23" x="164.02" y="24">a</tspan><tspan class="cls-14" x="174.94" y="24">te</tspan></text><text class="cls-29" transform="translate(1179.56 1946.6)"><tspan x="0" y="0">The Design Guru</tspan></text><text class="cls-38" transform="translate(1196.09 1977.71)"><tspan x="0" y="0">Senio</tspan><tspan class="cls-5" x="54.06" y="0">r</tspan><tspan class="cls-14" x="61.76" y="0" xml:space="preserve"> - C</tspan><tspan class="cls-51" x="99.32" y="0">r</tspan><tspan x="107.16" y="0">e</tspan><tspan class="cls-37" x="118.7" y="0">a</tspan><tspan x="129.62" y="0">tive - </tspan><tspan class="cls-24" x="-21.11" y="24">W</tspan><tspan x="-2.57" y="24">ellpaid - </tspan><tspan class="cls-43" x="86.77" y="24">I</tspan><tspan class="cls-14" x="92.59" y="24">ndepende</tspan><tspan class="cls-49" x="189.59" y="24">n</tspan><tspan class="cls-14" x="201.83" y="24">t</tspan></text><text class="cls-29" transform="translate(166.58 942.55)"><tspan x="0" y="0">The Da</tspan><tspan class="cls-48" x="98.15" y="0">t</tspan><tspan x="109.57" y="0">a </tspan><tspan class="cls-30" x="131.95" y="0">J</tspan><tspan x="142.28" y="0">ournalist</tspan></text><text class="cls-38" transform="translate(205.8 973.65)"><tspan class="cls-58" x="0" y="0">J</tspan><tspan x="11.14" y="0">unio</tspan><tspan class="cls-5" x="53.18" y="0">r</tspan><tspan class="cls-14" x="60.88" y="0" xml:space="preserve"> - C</tspan><tspan class="cls-51" x="98.44" y="0">r</tspan><tspan x="106.28" y="0">e</tspan><tspan class="cls-37" x="117.82" y="0">a</tspan><tspan x="128.74" y="0">tive - </tspan><tspan class="cls-15" x="-22.24" y="24">H</tspan><tspan x="-7.72" y="24">umb</tspan><tspan class="cls-22" x="36.22" y="24">l</tspan><tspan x="41.84" y="24">ypaid -</tspan><tspan class="cls-2" x="110.9" y="24"> </tspan><tspan class="cls-43" x="116.92" y="24">A</tspan><tspan class="cls-14" x="130.02" y="24">ssoci</tspan><tspan class="cls-37" x="179.62" y="24">a</tspan><tspan x="190.54" y="24">te</tspan></text><text class="cls-29" transform="translate(483.78 942.55)"><tspan x="0" y="0">The In</tspan><tspan class="cls-48" x="88.62" y="0">f</tspan><tspan x="98.78" y="0">og</tspan><tspan class="cls-56" x="132.55" y="0">r</tspan><tspan x="144.43" y="0">aphics Geek</tspan></text><text class="cls-38" transform="translate(543.64 973.65)"><tspan class="cls-58" x="0" y="0">J</tspan><tspan x="11.14" y="0">unio</tspan><tspan class="cls-5" x="53.18" y="0">r</tspan><tspan x="60.88" y="0" xml:space="preserve"> - C</tspan><tspan class="cls-51" x="98.44" y="0">r</tspan><tspan x="106.28" y="0">e</tspan><tspan class="cls-37" x="117.82" y="0">a</tspan><tspan x="128.74" y="0">tive - </tspan><tspan class="cls-15" x="-37.59" y="24">H</tspan><tspan x="-23.07" y="24">umb</tspan><tspan class="cls-22" x="20.87" y="24">l</tspan><tspan x="26.49" y="24">ypaid - </tspan><tspan class="cls-20" x="102.37" y="24">I</tspan><tspan x="108.19" y="24">ndepende</tspan><tspan class="cls-35" x="205.19" y="24">n</tspan><tspan x="217.43" y="24">t</tspan></text><text class="cls-29" transform="translate(838.69 942.55)"><tspan x="0" y="0">The C</tspan><tspan class="cls-32" x="79.55" y="0">r</tspan><tspan x="91.31" y="0">eati</tspan><tspan class="cls-10" x="143.24" y="0">v</tspan><tspan x="158.78" y="0">e </tspan><tspan class="cls-48" x="180.43" y="0">C</tspan><tspan x="200.48" y="0">oder</tspan></text><text class="cls-38" transform="translate(875.46 973.65)"><tspan class="cls-58" x="0" y="0">J</tspan><tspan x="11.14" y="0">unio</tspan><tspan class="cls-5" x="53.18" y="0">r</tspan><tspan x="60.88" y="0" xml:space="preserve"> - C</tspan><tspan class="cls-51" x="98.44" y="0">r</tspan><tspan x="106.28" y="0">e</tspan><tspan class="cls-37" x="117.82" y="0">a</tspan><tspan x="128.74" y="0">tive - </tspan><tspan class="cls-3" x="-6.2" y="24">W</tspan><tspan x="12.34" y="24">ellpaid -</tspan><tspan class="cls-2" x="94.86" y="24"> </tspan><tspan class="cls-43" x="100.88" y="24">A</tspan><tspan x="113.98" y="24">ssoci</tspan><tspan class="cls-23" x="163.58" y="24">a</tspan><tspan x="174.5" y="24">te</tspan></text><text class="cls-29" transform="translate(1149.35 942.55)"><tspan x="0" y="0">The Gene</tspan><tspan class="cls-56" x="130.02" y="0">r</tspan><tspan x="141.91" y="0">ati</tspan><tspan class="cls-10" x="178.63" y="0">v</tspan><tspan x="194.17" y="0">e Artist</tspan></text><text class="cls-38" transform="translate(1201.26 973.65)"><tspan class="cls-58" x="0" y="0">J</tspan><tspan x="11.14" y="0">unio</tspan><tspan class="cls-5" x="53.18" y="0">r</tspan><tspan x="60.88" y="0" xml:space="preserve"> - C</tspan><tspan class="cls-51" x="98.44" y="0">r</tspan><tspan x="106.28" y="0">e</tspan><tspan class="cls-37" x="117.82" y="0">a</tspan><tspan x="128.74" y="0">tive - </tspan><tspan class="cls-24" x="-21.55" y="24">W</tspan><tspan x="-3.01" y="24">ellpaid - </tspan><tspan class="cls-43" x="86.33" y="24">I</tspan><tspan class="cls-14" x="92.15" y="24">ndepende</tspan><tspan class="cls-49" x="189.15" y="24">n</tspan><tspan class="cls-14" x="201.39" y="24">t</tspan></text></g></svg>